<?xml version="1.0" encoding="utf-8"?>
<!-- Generator: Adobe Illustrator 15.1.0, SVG Export Plug-In . SVG Version: 6.00 Build 0)  -->
<!DOCTYPE svg PUBLIC "-//W3C//DTD SVG 1.1//EN" "http://www.w3.org/Graphics/SVG/1.1/DTD/svg11.dtd">
<svg version="1.1" id="Layer_1" xmlns="http://www.w3.org/2000/svg" xmlns:xlink="http://www.w3.org/1999/xlink" x="0px" y="0px"
	 width="257px" height="93px" viewBox="0 0 257 93" enable-background="new 0 0 257 93" xml:space="preserve">
<g>
	<defs>
		<rect id="SVGID_1_" width="257" height="93"/>
	</defs>
	<clipPath id="SVGID_2_">
		<use xlink:href="#SVGID_1_"  overflow="visible"/>
	</clipPath>
	<path clip-path="url(#SVGID_2_)" stroke="#FFFFFF" stroke-width="0.25" stroke-opacity="0.64" d="M57.015,45.546
		c-3.052,0.572-3.243,0.425-2.826-2.395c0.221-1.493,0.673-2.963,0.778-4.46c0.106-1.504,0.089-3.389-1.254-4.147
		c-1.706-0.962-2.525,1.09-3.634,1.953c-2.185,1.699-3.568,4.322-6.732,6.1c0.762-2.704,1.403-4.674,1.864-6.685
		c0.792-3.451,0.745-3.462-1.571-5.759c0.101,4.414-1.245,8.023-2.717,11.631c-0.728,1.782-0.908,3.803-1.205,5.736
		c-0.108,0.703,0.04,1.549,0.977,1.794c0.679,0.179,1.197-0.192,1.523-0.705c1.636-2.569,4.467-4.052,5.98-6.766
		c0.783-1.404,2.081-2.441,3.861-2.607c0.654,1.897-0.309,3.47-0.29,5.115c0.023,1.942-0.48,4.396,1.657,5.194
		c1.918,0.717,3.673-0.856,5.04-2.328c0.279-0.3,0.353-0.791,0.57-1.31C58.167,45.12,57.59,45.438,57.015,45.546"/>
	<path clip-path="url(#SVGID_2_)" stroke="#FFFFFF" stroke-width="0.25" stroke-opacity="0.64" d="M207.382,36.059
		c0.279-2.089,1.364-3.282,3.584-3.256c2.417,0.028,4.833,0.017,7.25,0.039c1.516,0.013,3.037,0.07,4.442-0.64
		c0.679-0.343,1.423-0.713,1.027-1.68c-0.276-0.675-0.914-0.624-1.532-0.605c-3.021,0.093-6.044,0.239-9.064,0.223
		c-3.997-0.022-3.982-0.092-2.802-3.716c0.608-1.866,1.108-3.768,1.611-5.665c0.318-1.2,0.37-2.389-0.872-3.631
		c-0.311,0.303-0.489,0.393-0.517,0.517c-1.158,5.092-1.54,10.506-6.01,14.213c-0.281,0.234-0.54,0.96-0.395,1.176
		c1.611,2.383,0.557,5.018,0.791,7.52c0.239,2.567,0.989,5.026,3.676,5.679c2.517,0.612,4.438-0.96,6.032-2.739
		c-0.639-0.948-1.195-0.868-1.793-0.689c-5.178,1.549-6.05,0.864-5.701-4.496C207.159,37.556,207.28,36.808,207.382,36.059"/>
	<path clip-path="url(#SVGID_2_)" stroke="#FFFFFF" stroke-width="0.25" stroke-opacity="0.64" d="M79.704,33.867
		c-1.722-1.462-3.596-0.292-5.399,0.716c-3.776,2.112-6.852,4.948-9.525,8.288c-0.55,0.688-1.04,1.687-2.122,1.261
		c-1.024-0.402-0.856-1.491-0.884-2.376c-0.032-1.059,0.056-2.123,0.003-3.181c-0.058-1.135,0.375-2.486-1.719-3.366
		c-0.664,3.214-0.426,6.221-0.21,9.216c0.119,1.644,0.019,3.787,1.585,4.488c1.878,0.842,2.785-1.38,3.868-2.478
		c2.856-2.891,4.808-6.644,8.439-8.809c1.487-0.886,2.771-3.125,4.637-1.973c1.896,1.17,0.597,3.281,0.231,5.003
		c-0.441,2.074-0.888,4.148-1.238,6.238c-0.152,0.912-0.022,1.963,0.991,2.307c1.236,0.42,1.968-0.518,2.491-1.451
		c0.278-0.495,0.586-1.377,0.353-1.688c-1.68-2.238-0.462-4.306,0.198-6.418C82.124,37.337,81.312,35.232,79.704,33.867"/>
	<path clip-path="url(#SVGID_2_)" stroke="#FFFFFF" stroke-width="0.25" stroke-opacity="0.64" d="M36.811,25.807
		c-1.773,5.915-3.787,11.767-4.903,17.86c-0.294,1.607-0.809,3.26,0.006,4.876c0.343,0.679,0.768,1.427,1.656,1.265
		c1.027-0.188,0.94-1.119,0.705-1.787c-0.924-2.617-0.075-5.063,0.607-7.522c1.208-4.355,2.422-8.709,3.715-13.039
		c0.684-2.288,1.628-8.095,0.651-10.559C38.669,18.688,37.35,24.007,36.811,25.807"/>
	<path clip-path="url(#SVGID_2_)" stroke="#FFFFFF" stroke-width="0.25" stroke-opacity="0.64" d="M93.632,35.384
		c1.615,0.019,3.238-0.472,4.86,0.046c0.637,0.204,1.22,0.09,1.451-0.568c0.281-0.799-0.021-1.482-0.813-1.817
		c-1.905-0.807-3.805-0.294-5.699,0.101l0,0c-2.007-0.365-1.767-1.635-1.223-3.031c1.042-2.67,2.494-7.338,2.775-10.172
		c0.101-1.016,0.33-2.31-1.158-2.966c-1.168,4.274-3.155,10.177-4.255,14.201l0.001,0.001H89.57
		c-0.865,0.815-0.97,2.086-2.056,2.869c-2.029,1.462-1.94,1.586,0.31,3.542c-1.094,1.797-1.02,3.802-0.658,5.702
		c0.355,1.866,1.301,3.418,4.275,2.13c-2.964-1.704-2.555-4.263-2.453-6.738C89.739,36.462,91.146,35.354,93.632,35.384
		 M93.421,33.152c-0.284,0.202-0.547,0.327-0.789,0.386C92.869,33.46,93.131,33.335,93.421,33.152"/>
	<path clip-path="url(#SVGID_2_)" d="M137.441,27.021c0.779-0.33,1.846-0.775,1.745-2c-0.065-0.798-1.012-1.06-1.779-0.995
		c-0.924,0.079-1.831,0.402-1.715,1.58C135.772,26.417,136.352,26.903,137.441,27.021"/>
	<path clip-path="url(#SVGID_2_)" d="M81.82,26.18c-0.981-0.037-1.228,0.73-1.277,1.505c-0.041,0.638,0.232,1.164,1.076,1.311
		c0.794-0.12,1.166-0.708,1.177-1.539C82.804,26.812,82.559,26.208,81.82,26.18"/>
	<path clip-path="url(#SVGID_2_)" stroke="#FFFFFF" stroke-width="0.25" stroke-opacity="0.64" d="M226.008,38.343
		c-1.124-0.423-2.466-0.36-3.18-1.672c-0.598-1.1-1.324-0.438-1.762,0.164c-0.635,0.872-1.167,1.834-1.639,2.808
		c-1.825,3.765,0.199,6.711,4.648,6.53c0.279-0.045,0.745-0.09,1.196-0.196c1.954-0.462,3.506-1.457,3.808-3.581
		C229.407,40.108,227.892,39.053,226.008,38.343 M224.264,43.808c-1.227,0.369-2.483,0.45-3.345-0.814
		c-0.3-0.44-0.238-1.001,0.161-1.248c1.344-0.831,2.854-1.163,4.424-1.058c0.45,0.029,0.817,0.407,0.878,1.009
		C226.265,42.926,225.32,43.49,224.264,43.808"/>
	<path clip-path="url(#SVGID_2_)" stroke="#FFFFFF" stroke-width="0.25" stroke-opacity="0.64" d="M191.419,35.656
		c-2.311,1.445-4.633,2.871-6.917,4.354c-3.607,2.34-7.51,3.958-11.737,4.688c-4.428,0.766-6.086-0.413-7.184-4.766
		c-0.409-1.625-0.632-3.254-0.604-4.933c0.013-0.781-0.34-1.524-1.125-1.818c-0.799-0.3-1.438,0.101-1.976,0.718
		c-1.168,1.342-2.167,2.898-4.336,3.538c-0.824-4.023-3.549-4.429-6.898-3.694c-2.355,0.516-4.739,0.906-7.114,1.331
		c-3.589,0.643-6.265,2.348-6.9,6.202c-0.217,1.314-0.728,2.269-1.858,2.925c-0.661,0.384-1.35,0.829-2.098,0.369
		c-0.748-0.459-0.751-1.256-0.577-2.023c0.752-3.319,2.34-6.205,4.638-8.695c0.499-0.541,1.336-0.927,0.758-1.808
		c-0.469-0.716-1.327-0.745-2.05-0.556c-2.364,0.618-4.759,0.907-7.192,0.914c-4.639,0.013-4.691-0.065-3.459-4.699
		c0.039-0.146,0.103-0.285,0.144-0.43c0.211-0.764,0.301-1.596-0.507-1.99c-0.953-0.464-1.332,0.363-1.603,1.06
		c-1.003,2.572-2.206,4.969-4.619,6.571c-0.643,0.427-0.613,1.324-0.799,2.061c-0.987,3.899-4.531,5.412-7.304,7.618
		c-0.541,0.431-1.479,0.439-2.139-0.081c-0.702-0.552-0.511-1.35-0.396-2.098c0.082-0.536,0.436-1.459,0.735-2.088
		c0.85-1.785,1.008-2.707,0.89-3.268c-0.991,0.021-1.447,0.738-1.968,1.617c-1.595,2.693-3.462,5.176-7.025,6.753
		c0.25-2.925,2.138-4.128,3.656-5.606c1.23-1.196,3.149-1.988,3.058-4.066c-0.275,0.006-0.53,0.031-0.708,0.07
		c-5.538,1.223-7.977,6.581-10.629,11.136c-0.406,0.698-0.311,1.47,0.304,2.072c0.659,0.645,1.38,0.389,2.082,0.067
		c1.784-0.817,3.63-1.505,5.115-2.878c0.967-0.895,1.961-1.468,2.862,0.202c0.928,1.722,2.427,1.467,3.958,0.945
		c2.35-0.8,4.31-2.105,5.881-4.072c0.851-1.065,1.522-2.532,3.489-2.717c-0.069,1.032-0.121,1.771-0.168,2.511
		c-0.172,2.704-0.963,5.972,1.747,7.486c2.222,1.242,4.559-0.686,6.526-2.142c0.85-0.629,1.744-1.412,2.829-0.534
		c3.032,2.456,5.275,1.135,7.29-1.44c0.465,0.459,0.931,0.919,1.396,1.378c0.055,0.113,0.132,0.204,0.253,0.25
		c0.633,0.98,1.5,1.495,2.687,1.261c2.72-0.534,5.242-1.405,7.145-3.626c1.871-2.184,0.73-4.487,0.119-6.648
		c5.386-1.792,5.645-1.593,4.77,3.375c-0.159,0.9-0.513,1.856,0.375,2.505c1.146,0.836,1.956-0.136,2.795-0.725
		c1.958-1.376,3.11-3.668,5.285-4.908c0.32,0.351,0.604,0.539,0.706,0.798c0.331,0.842,0.675,1.693,0.872,2.571
		c1.438,6.413,5.833,8.252,12.134,5.883c3.69-1.387,7.216-3.216,10.303-5.701c2.269-1.826,5.048-3.051,7.029-5.414
		C192.392,34.913,191.914,35.346,191.419,35.656 M131.866,36.586c-1.308,3.868-2.7,7.644-7.242,8.995
		c-3.109,0.925-3.824,0.491-3.693-3.185c0.043-0.317,0.119-1.068,0.25-1.809c1.023-5.804,3.631-7.44,9.391-5.938
		C131.625,34.924,132.223,35.531,131.866,36.586 M146.791,42.342c-0.957,0.979-2.108,1.658-3.523,1.761
		c-0.614,0.079-1.21,0.036-1.483-0.618c-0.478-1.15,1.579-4.999,2.776-5.135c1.098-0.124,2.111,0.23,2.736,1.173
		C147.986,40.562,147.562,41.552,146.791,42.342"/>
	<path clip-path="url(#SVGID_2_)" d="M197.5,57.377v0.01c0-0.062-0.737,0.113-0.95,0.113h-0.05v0.016
		c0-0.017-0.976-0.016-1.513-0.016h-0.002h0.002c-1.478,0-2.953-1-4.438,0h0.001h-0.002c-4.299-1-8.714-0.373-13.064-0.429
		c-8.435-0.108-17.011,0.018-25.45,0.058c-0.801-0.021-1.533-0.054-2.533-0.076v-0.004c-1-0.019-2-0.557-4,0.108v-0.002v-0.001
		v0.147c-2,0.046-3.743-0.802-5.699,0.198h-0.002c-5.685-1-11.356-0.211-17.05-0.025c-10.335,0.336-20.685,0.354-31.028,0.54
		c-10.88,0.196-21.544,0.327-32.423,0.546c-6.34,0.128-12.798,0.312-18.798,0.48v-0.009c-3-0.437-6.051,0.226-8.948-0.366
		c-1.153-0.236-2.681,0.162-2.562,1.241c0.118,1.076,1.182,1.588,2.785,1.339c4.05-0.628,8.137-0.746,12.26-0.746h-0.014
		c9.69,0,19.374-0.45,29.064-0.664c16.758-0.37,33.475-0.718,50.227-1.202c6.076-0.176,12.188,0.342,18.188-0.541v-0.007
		c1,0.034,3,0.065,4,0.1v-0.001c2,0.585,4.318,0.167,6.475,0.015c0.92,0.066,1.846,0.191,2.767,0.191
		c13.628,0.004,27.258,0.104,40.887,0.096c1.152-0.03,2.325,0.014,3.457,0.014h0.001c9.338,0,18.677,0.215,28.015,0.38
		c0.062-0.331,0.211-0.717,0.272-1.047C217.404,57.275,207.5,56.955,197.5,57.377"/>
</g>
<text transform="matrix(1 0 0 1 38.667 76.2568)" font-family="'GillSans-SemiBold'" font-size="12">ITALIAN LAKES and BEYOND</text>
</svg>
